<?xml version="1.0" encoding="utf-8"?>
<!-- Generator: Adobe Illustrator 22.1.0, SVG Export Plug-In . SVG Version: 6.00 Build 0)  -->
<svg version="1.1" id="Layer_1" xmlns="http://www.w3.org/2000/svg" xmlns:xlink="http://www.w3.org/1999/xlink" x="0px" y="0px"
	 viewBox="0 0 617.9 530.8" style="enable-background:new 0 0 617.9 530.8;" xml:space="preserve">
<style type="text/css">
	.st0{fill:#00FF00;}
	.st1{fill:none;stroke:#000000;stroke-miterlimit:10;}
</style>
<g>
	<g id="XMLID_1_">
		<g>
			<path class="st0" d="M441.2,238.5L617,530.3H361.2L309.5,363l-51.7,167.3H1l175.8-291.8H0.5c0-51.8,100.2-95.2,235-106.9l0-2.6
				c0-71,32.7-128.5,73-128.5s73,57.5,73,128.5l0,2.6c134.9,11.7,235,55.1,235,106.9H441.2z"/>
		</g>
		<g>
			<path class="st1" d="M441.2,238.5h175.3c0-51.8-100.2-95.2-235-106.9l0-2.6c0-71-32.7-128.5-73-128.5s-73,57.5-73,128.5l0,2.6
				c-134.9,11.7-235,55.1-235,106.9h176.3"/>
			<polyline class="st1" points="176.8,238.5 1,530.3 257.8,530.3 309.5,363 361.2,530.3 617,530.3 441.2,238.5 			"/>
		</g>
	</g>
</g>
</svg>
